# xmcd
#
# Track frame offsets:
#	150
#	11377
#	23367
#	36162
#	54160
#	63800
#	68587
#	81627
#	92037
#	103002
#	116170
#	128095
#	138272
#
# Disc length: 1967 seconds
#
# Revision: 0
# Processed by: cddbd v1.4PL0 Copyright (c) Steve Scherf et al.
# Submitted via: dBpowerAMP V4.0
#
DISCID=9e07ad0d
DTITLE=Dillards - Copperfields
DYEAR=1970
DGENRE=Country
TTITLE0=Rainmaker
TTITLE1=In Our Time
TTITLE2=The Old Man At the Mill
TTITLE3=Touch Her If You Can
TTITLE4=Woman Turn Around
TTITLE5=Yesterday
TTITLE6=Brother John
TTITLE7=Copperfields
TTITLE8=West Montana Hanna
TTITLE9=Close The Door Lightly
TTITLE10=Pictures
TTITLE11=Ebo Walker
TTITLE12=Sundown
EXTD=
EXTT0=
EXTT1=
EXTT2=
EXTT3=
EXTT4=
EXTT5=
EXTT6=
EXTT7=
EXTT8=
EXTT9=
EXTT10=
EXTT11=
EXTT12=
PLAYORDER=
